<?xml version="1.0" encoding="utf-8"?>
<!-- Generator: Adobe Illustrator 16.0.0, SVG Export Plug-In . SVG Version: 6.00 Build 0)  -->
<!DOCTYPE svg PUBLIC "-//W3C//DTD SVG 1.1//EN" "http://www.w3.org/Graphics/SVG/1.1/DTD/svg11.dtd">
<svg version="1.1" id="Layer_1" xmlns="http://www.w3.org/2000/svg" xmlns:xlink="http://www.w3.org/1999/xlink" x="0px" y="0px"
	 width="368.425px" height="223.958px" viewBox="0 0 368.425 223.958" enable-background="new 0 0 368.425 223.958"
	 xml:space="preserve">
<g>
	<g>
		<text transform="matrix(1 0 0 1 0 112.0293)" fill="#BCB2A9" font-family="'OpenSans-Light'" font-size="72">CAFFEINA</text>
	</g>
	<g>
		<g>
			<path fill="#BCB2A9" d="M251.406,2.853c23.242,15.8,47.955,29.276,71.366,44.815c12.276,8.147,24.098,16.976,34.994,26.906
				c3.986,3.633,7.821,8.243,7.766,13.902c-0.047,4.771-3.997,8.819-7.205,11.877c-7.08,6.748-15.606,11.766-22.588,18.648
				c-8.755,8.633-14.522,19.809-16.218,31.975c-3.424,24.587,9.188,48.938,15.85,71.925c0.537,1.854,3.433,1.065,2.893-0.797
				c-7.03-24.256-20.651-50.135-14.818-75.996c2.932-12.996,11.681-23.349,21.828-31.495c7.186-5.768,15.608-10.83,20.772-18.663
				c4.582-6.951,1.97-14.274-2.934-20.188c-8.444-10.187-20.934-18.292-31.694-25.828c-23.536-16.483-48.898-30.14-72.896-45.913
				c-1.879-1.235-3.742-2.495-5.602-3.759C251.315-0.829,249.816,1.772,251.406,2.853L251.406,2.853z"/>
		</g>
	</g>
</g>
</svg>
