<?xml version="1.0" encoding="utf-8"?>
<!-- Generator: Adobe Illustrator 16.0.0, SVG Export Plug-In . SVG Version: 6.00 Build 0)  -->
<!DOCTYPE svg PUBLIC "-//W3C//DTD SVG 1.1//EN" "http://www.w3.org/Graphics/SVG/1.1/DTD/svg11.dtd">
<svg version="1.1" id="Layer_1" xmlns="http://www.w3.org/2000/svg" xmlns:xlink="http://www.w3.org/1999/xlink" x="0px" y="0px"
	 width="391.48px" height="98.995px" viewBox="0 0 391.48 98.995" enable-background="new 0 0 391.48 98.995" xml:space="preserve">
<g>
	<g>
		<path fill="#D7C1C1" d="M63.54,41.768c2.267,0.92,3.967,2.055,5.102,3.402c1.134,1.348,1.701,2.666,1.701,3.953
			c0,1.043-0.368,1.885-1.104,2.527c-0.735,0.645-1.778,0.965-3.125,0.965c0-3.186-1.149-5.545-3.448-7.078
			c-2.298-1.531-5.134-2.299-8.504-2.299c-2.882,0-5.226,0.906-7.033,2.713c-1.809,1.809-2.744,4.031-2.804,6.664v23.996
			c0,1.717,0.52,3.295,1.562,4.734c1.042,1.441,2.391,2.59,4.045,3.447c1.655,0.859,3.37,1.287,5.148,1.287
			c3.861,0.062,6.68-0.627,8.458-2.068c1.777-1.439,2.666-3.723,2.666-6.85c1.225,0,2.16,0.293,2.804,0.875s0.965,1.363,0.965,2.344
			c0,1.227-0.537,2.482-1.609,3.77c-1.073,1.287-2.666,2.359-4.78,3.217c-2.115,0.857-4.643,1.287-7.585,1.287
			c-4.597,0-8.535-0.873-11.813-2.619c-3.279-1.748-5.762-4.121-7.447-7.125c-1.687-3.002-2.528-6.344-2.528-10.021v-8.734
			c0-3.615,0.874-6.924,2.621-9.928c1.747-3.004,4.121-5.393,7.125-7.172c3.002-1.777,6.282-2.666,9.837-2.666h1.655
			C58.575,40.389,61.271,40.848,63.54,41.768z"/>
		<path fill="#D7C1C1" d="M107.852,87.459c0,0,0-1.715,0-5.148c-0.552,1.166-1.181,2.178-1.885,3.035
			c-0.706,0.857-1.947,1.623-3.724,2.297c-1.778,0.674-4.199,1.012-7.263,1.012c-5.148,0-9.209-1.24-12.181-3.723
			c-2.974-2.482-4.459-5.898-4.459-10.252c0-2.389,0.658-4.688,1.977-6.895c1.317-2.207,3.14-3.982,5.47-5.332
			c2.329-1.348,4.964-2.023,7.906-2.023h13.974v-5.055c0-3.617-0.767-6.543-2.298-8.781c-1.533-2.236-3.893-3.355-7.079-3.355
			c-6.129,0-9.193,2.912-9.193,8.734c-1.471,0-2.606-0.352-3.402-1.057c-0.797-0.705-1.195-1.609-1.195-2.713
			c0-1.225,0.474-2.436,1.425-3.631c0.95-1.195,2.375-2.191,4.275-2.988c1.899-0.795,4.167-1.195,6.803-1.195h2.482
			c3.861,0,7.185,0.781,9.975,2.344c2.789,1.564,4.887,3.693,6.298,6.391c1.409,2.697,2.145,5.699,2.207,9.01v27.488h3.677v1.838
			h-5.976C110.456,87.459,107.852,87.459,107.852,87.459z M92.453,66.176c-2.422,2.238-3.631,5.104-3.631,8.596
			c0,2.33,0.49,4.367,1.471,6.115c0.979,1.746,2.267,3.08,3.861,3.998c1.593,0.92,3.248,1.35,4.965,1.287
			c2.758,0.062,4.902-0.979,6.435-3.125c1.532-2.145,2.267-5.24,2.207-9.285l-0.184-10.85h-5.792
			C97.983,62.852,94.873,63.939,92.453,66.176z"/>
		<path fill="#D7C1C1" d="M144.717,27.794v13.698h10.756v2.666h-10.756v41.463h3.677v1.838h-17.56v-1.838h3.678V44.158h-3.402
			v-2.666h3.31v-10.94c0-5.208,1.409-9.47,4.229-12.778c2.818-3.311,6.987-4.965,12.503-4.965h2.85c2.451,0,4.535,0.367,6.251,1.104
			c1.715,0.734,2.988,1.67,3.815,2.804c0.827,1.135,1.241,2.284,1.241,3.447c0,1.349-0.459,2.468-1.379,3.355
			c-0.919,0.89-2.207,1.333-3.861,1.333c0-6.128-2.452-9.193-7.354-9.193c-3.126,0-5.24,1.058-6.344,3.172
			C145.269,20.945,144.717,23.933,144.717,27.794z"/>
		<path fill="#D7C1C1" d="M169.08,27.794v13.698h10.756v2.666H169.08v41.463h3.677v1.838h-17.56v-1.838h3.678V44.158h-3.402v-2.666
			h3.31v-10.94c0-5.208,1.409-9.47,4.229-12.778c2.818-3.311,6.987-4.965,12.503-4.965h2.85c2.451,0,4.535,0.367,6.251,1.104
			c1.715,0.734,2.988,1.67,3.815,2.804c0.827,1.135,1.241,2.284,1.241,3.447c0,1.349-0.459,2.468-1.379,3.355
			c-0.919,0.89-2.207,1.333-3.861,1.333c0-6.128-2.452-9.193-7.354-9.193c-3.126,0-5.24,1.058-6.344,3.172
			C169.631,20.945,169.08,23.933,169.08,27.794z"/>
		<path fill="#D7C1C1" d="M191.189,81.438c1.072,1.441,2.467,2.574,4.183,3.402c1.715,0.826,3.494,1.24,5.332,1.24
			c7.231,0,10.849-3.186,10.849-9.561c1.225,0,2.16,0.322,2.804,0.965c0.644,0.645,0.965,1.457,0.965,2.436
			c0,1.287-0.537,2.607-1.609,3.953c-1.073,1.35-2.666,2.482-4.78,3.402c-2.115,0.92-4.643,1.379-7.585,1.379
			c-4.597,0-8.535-0.873-11.813-2.619c-3.279-1.748-5.762-4.121-7.447-7.125c-1.687-3.002-2.528-6.344-2.528-10.021v-8.734
			c0-3.615,0.874-6.924,2.621-9.928c1.747-3.004,4.105-5.393,7.079-7.172c2.972-1.777,6.236-2.666,9.791-2.666
			c13.177,0,19.766,7.846,19.766,23.535H189.58v12.779C189.58,78.42,190.116,79.998,191.189,81.438z M208.519,52.615
			c0-2.574-0.936-4.779-2.804-6.619c-1.87-1.838-4.091-2.758-6.666-2.758c-2.636,0-4.858,0.906-6.665,2.713
			c-1.809,1.809-2.712,4.031-2.712,6.664v8.734h18.847V52.615z"/>
		<path fill="#D7C1C1" d="M228.008,43.238V41.4h13.606v44.221h4.045v1.838h-5.976c-2.39,0-4.291-0.49-5.7-1.471
			c-1.411-0.979-2.115-2.451-2.115-4.412V43.238H228.008z M236.834,34.045c1.655,0,3.08-0.611,4.275-1.838
			c1.195-1.225,1.792-2.666,1.792-4.321c0-1.716-0.598-3.187-1.792-4.413c-1.195-1.225-2.62-1.838-4.275-1.838
			c-1.717,0-3.172,0.613-4.367,1.838c-1.195,1.227-1.792,2.697-1.792,4.413c0,1.655,0.598,3.097,1.792,4.321
			C233.662,33.434,235.117,34.045,236.834,34.045z"/>
		<path fill="#D7C1C1" d="M269.562,45.078c2.634-3.127,5.884-4.689,9.745-4.689s7.171,0.721,9.929,2.16
			c2.758,1.441,4.857,3.402,6.298,5.885c1.439,2.482,2.16,5.225,2.16,8.229v28.959h3.678v1.838h-5.976c-2.39,0-4.291-0.49-5.7-1.471
			c-1.411-0.979-2.115-2.451-2.115-4.412V52.615c0-2.758-0.859-5.01-2.574-6.756c-1.716-1.748-3.953-2.621-6.711-2.621
			c-1.717,0-3.204,0.322-4.459,0.967c-1.257,0.643-2.62,2.037-4.091,4.182v37.234h3.678v1.838h-17.56v-1.838h3.585V43.33h-3.678
			v-1.838h13.606L269.562,45.078z"/>
		<path fill="#D7C1C1" d="M339.801,87.459c0,0,0-1.715,0-5.148c-0.552,1.166-1.181,2.178-1.885,3.035
			c-0.706,0.857-1.947,1.623-3.724,2.297c-1.778,0.674-4.199,1.012-7.263,1.012c-5.148,0-9.209-1.24-12.181-3.723
			c-2.974-2.482-4.459-5.898-4.459-10.252c0-2.389,0.658-4.688,1.977-6.895c1.317-2.207,3.14-3.982,5.47-5.332
			c2.329-1.348,4.964-2.023,7.906-2.023h13.974v-5.055c0-3.617-0.767-6.543-2.298-8.781c-1.533-2.236-3.893-3.355-7.079-3.355
			c-6.129,0-9.193,2.912-9.193,8.734c-1.471,0-2.606-0.352-3.402-1.057c-0.797-0.705-1.195-1.609-1.195-2.713
			c0-1.225,0.474-2.436,1.425-3.631c0.95-1.195,2.375-2.191,4.275-2.988c1.899-0.795,4.167-1.195,6.803-1.195h2.482
			c3.861,0,7.185,0.781,9.975,2.344c2.789,1.564,4.887,3.693,6.298,6.391c1.409,2.697,2.145,5.699,2.207,9.01v27.488h3.677v1.838
			h-5.976C342.405,87.459,339.801,87.459,339.801,87.459z M324.402,66.176c-2.422,2.238-3.631,5.104-3.631,8.596
			c0,2.33,0.49,4.367,1.471,6.115c0.979,1.746,2.267,3.08,3.861,3.998c1.593,0.92,3.248,1.35,4.965,1.287
			c2.758,0.062,4.902-0.979,6.435-3.125c1.532-2.145,2.267-5.24,2.207-9.285l-0.184-10.85h-5.792
			C329.933,62.852,326.822,63.939,324.402,66.176z"/>
	</g>
</g>
</svg>
